<svg width="24" height="24" viewBox="0 0 24 24" fill="none" xmlns="http://www.w3.org/2000/svg">
<g filter="url(#filter0_d_8_14)">
<path d="M12.0001 11.8004C13.1785 11.8005 14.0662 12.1021 14.8166 12.3522C15.566 12.602 16.1787 12.8004 17.0001 12.8004C17.7527 12.8004 18.5368 12.631 19.1984 12.4274C20.4535 12.041 22.0001 12.9029 22.0001 14.4186V19.8004C22 21.4571 20.6568 22.8003 19.0001 22.8004H5.00015C3.39515 22.8003 2.08441 21.5398 2.00406 19.9547L2.00015 19.8004V14.4186C2.00014 12.9028 3.54672 12.041 4.80191 12.4274C5.46357 12.6311 6.24768 12.8004 7.00015 12.8004C7.82154 12.8004 8.43437 12.602 9.18374 12.3522C9.93409 12.1021 10.8219 11.8005 12.0001 11.8004ZM12.0001 13.8004C11.1787 13.8005 10.5661 13.9998 9.81656 14.2496C9.06622 14.4998 8.1784 14.8004 7.00015 14.8004C6.10227 14.8004 5.22806 14.6275 4.51089 14.4264L4.21304 14.3385C4.16954 14.3253 4.10369 14.3315 4.04507 14.3707C4.019 14.3882 4.00618 14.4047 4.0021 14.4118C3.99989 14.4157 4.00015 14.4161 4.00015 14.4186V17.2731C4.20666 17.2724 4.41398 17.3014 4.61343 17.3668L4.88101 17.4508C5.52231 17.6426 6.27485 17.8004 7.00015 17.8004C7.82154 17.8004 8.43437 17.602 9.18374 17.3522C9.93409 17.1021 10.8219 16.8005 12.0001 16.8004C13.1783 16.8005 14.0662 17.1021 14.8166 17.3522C15.5659 17.6019 16.1788 17.8004 17.0001 17.8004C17.8291 17.8004 18.6934 17.5945 19.3869 17.3668L19.6095 17.3092C19.7386 17.2836 19.8695 17.2727 20.0001 17.2731V14.4186C20.0002 14.4162 20.0004 14.4157 19.9982 14.4118C19.9941 14.4047 19.9819 14.3881 19.9562 14.3707C19.8975 14.3313 19.8308 14.3253 19.7873 14.3385C19.0219 14.5741 18.0264 14.8004 17.0001 14.8004C15.822 14.8004 14.934 14.4997 14.1837 14.2496C13.4343 13.9998 12.8216 13.8005 12.0001 13.8004ZM17.5119 0.816052C19.6039 0.583126 21.5368 2.0215 21.8947 4.11976L22.2482 6.19105C22.4231 7.21708 21.7825 8.19256 20.799 8.45765L20.5978 8.5016L3.17202 11.3395C2.6302 11.4272 2.11788 11.0613 2.02554 10.5202L1.51089 7.49965C1.13765 5.31072 2.61919 3.23685 4.8107 2.87953L17.3087 0.843395L17.5119 0.816052ZM5.13199 4.85316C4.03648 5.03206 3.29593 6.06939 3.48257 7.16371L3.83023 9.20472L8.31558 8.47425L6.37906 4.65004L5.13199 4.85316ZM8.45035 4.31215L10.3869 8.13636L14.7199 7.43031L12.8146 3.60121L8.45035 4.31215ZM17.8322 2.79554L17.63 2.818L14.881 3.26527L16.7863 7.09437L20.2765 6.52699L19.923 4.4557C19.7498 3.4403 18.8389 2.73431 17.8322 2.79554Z" fill="#FF4B33"/>
</g>
<defs>
<filter id="filter0_d_8_14" x="0.953336" y="0.491351" width="21.8236" height="23.0091" filterUnits="userSpaceOnUse" color-interpolation-filters="sRGB">
<feFlood flood-opacity="0" result="BackgroundImageFix"/>
<feColorMatrix in="SourceAlpha" type="matrix" values="0 0 0 0 0 0 0 0 0 0 0 0 0 0 0 0 0 0 127 0" result="hardAlpha"/>
<feOffset dy="0.2"/>
<feGaussianBlur stdDeviation="0.25"/>
<feComposite in2="hardAlpha" operator="out"/>
<feColorMatrix type="matrix" values="0 0 0 0 0 0 0 0 0 0 0 0 0 0 0 0 0 0 0.3 0"/>
<feBlend mode="normal" in2="BackgroundImageFix" result="effect1_dropShadow_8_14"/>
<feBlend mode="normal" in="SourceGraphic" in2="effect1_dropShadow_8_14" result="shape"/>
</filter>
</defs>
</svg>
